<svg xmlns="http://www.w3.org/2000/svg" xmlns:xlink="http://www.w3.org/1999/xlink" viewBox="0 0 697.26 696.26"><defs><style>.cls-1,.cls-10,.cls-11,.cls-12,.cls-13,.cls-14,.cls-15,.cls-16,.cls-17,.cls-18,.cls-2,.cls-3,.cls-4,.cls-5,.cls-6,.cls-7,.cls-8,.cls-9{fill:none;stroke-miterlimit:10;}.cls-1{stroke:url(#radial-gradient);}.cls-2{stroke:url(#radial-gradient-2);}.cls-3{stroke:url(#radial-gradient-3);}.cls-4{stroke:url(#radial-gradient-4);}.cls-5{stroke:url(#radial-gradient-5);}.cls-6{stroke:url(#radial-gradient-6);}.cls-7{stroke:url(#radial-gradient-7);}.cls-8{stroke:url(#radial-gradient-8);}.cls-9{stroke:url(#radial-gradient-9);}.cls-10{stroke:url(#radial-gradient-10);}.cls-11{stroke:url(#radial-gradient-11);}.cls-12{stroke:url(#radial-gradient-12);}.cls-13{stroke:url(#radial-gradient-13);}.cls-14{stroke:url(#radial-gradient-14);}.cls-15{stroke:url(#radial-gradient-15);}.cls-16{stroke:url(#radial-gradient-16);}.cls-17{stroke:url(#radial-gradient-17);}.cls-18{stroke:url(#radial-gradient-18);}</style><radialGradient id="radial-gradient" cx="348.63" cy="178.53" r="168.78" gradientUnits="userSpaceOnUse"><stop offset="0" stop-color="#ff756b"/><stop offset="0.31" stop-color="#ff6581"/><stop offset="0.59" stop-color="#fd4771"/><stop offset="1" stop-color="#f53665"/></radialGradient><radialGradient id="radial-gradient-2" cx="238.13" cy="139.83" r="168.78" gradientTransform="matrix(0.94, 0.34, -0.34, 0.94, 230.7, -24.08)" xlink:href="#radial-gradient"/><radialGradient id="radial-gradient-3" cx="121.05" cy="141.25" r="168.78" gradientTransform="matrix(0.77, 0.64, -0.64, 0.77, 455.71, 32.19)" xlink:href="#radial-gradient"/><radialGradient id="radial-gradient-4" cx="11.52" cy="182.63" r="168.78" gradientTransform="matrix(0.5, 0.87, -0.87, 0.5, 647.91, 162.04)" xlink:href="#radial-gradient"/><radialGradient id="radial-gradient-5" cx="-77.25" cy="258.98" r="168.78" gradientTransform="translate(784.12 349.78) rotate(80)" xlink:href="#radial-gradient"/><radialGradient id="radial-gradient-6" cx="-134.56" cy="361.09" r="168.78" gradientTransform="translate(847.89 572.79) rotate(100)" xlink:href="#radial-gradient"/><radialGradient id="radial-gradient-7" cx="-153.48" cy="476.63" r="168.78" gradientTransform="translate(831.54 804.16) rotate(120)" xlink:href="#radial-gradient"/><radialGradient id="radial-gradient-8" cx="-131.75" cy="591.69" r="168.78" gradientTransform="translate(737.05 1015.99) rotate(140)" xlink:href="#radial-gradient"/><radialGradient id="radial-gradient-9" cx="-71.97" cy="692.37" r="168.78" gradientTransform="translate(575.81 1182.73) rotate(160)" xlink:href="#radial-gradient"/><radialGradient id="radial-gradient-10" cx="18.63" cy="766.53" r="168.78" gradientTransform="translate(367.26 1284.26) rotate(180)" xlink:href="#radial-gradient"/><radialGradient id="radial-gradient-11" cx="129.13" cy="805.23" r="168.78" gradientTransform="matrix(-0.94, -0.34, 0.34, -0.94, 136.56, 1308.34)" xlink:href="#radial-gradient"/><radialGradient id="radial-gradient-12" cx="246.21" cy="803.81" r="168.78" gradientTransform="matrix(-0.77, -0.64, 0.64, -0.77, -88.45, 1252.06)" xlink:href="#radial-gradient"/><radialGradient id="radial-gradient-13" cx="355.74" cy="762.42" r="168.78" gradientTransform="matrix(-0.5, -0.87, 0.87, -0.5, -280.65, 1122.22)" xlink:href="#radial-gradient"/><radialGradient id="radial-gradient-14" cx="444.51" cy="686.07" r="168.78" gradientTransform="translate(-416.86 934.47) rotate(-100)" xlink:href="#radial-gradient"/><radialGradient id="radial-gradient-15" cx="501.82" cy="583.97" r="168.78" gradientTransform="translate(-480.63 711.46) rotate(-80)" xlink:href="#radial-gradient"/><radialGradient id="radial-gradient-16" cx="520.74" cy="468.42" r="168.78" gradientTransform="translate(-464.28 480.09) rotate(-60)" xlink:href="#radial-gradient"/><radialGradient id="radial-gradient-17" cx="499.01" cy="353.37" r="168.78" gradientTransform="translate(-369.79 268.26) rotate(-40)" xlink:href="#radial-gradient"/><radialGradient id="radial-gradient-18" cx="439.23" cy="252.69" r="168.78" gradientTransform="translate(-208.55 101.53) rotate(-20)" xlink:href="#radial-gradient"/></defs><title>Asset 2</title><g id="Layer_2" data-name="Layer 2"><g id="Layer_3" data-name="Layer 3"><path class="cls-1" d="M514.05,53.35l-237,294-96-110,93,80s158-105,27-236,55-43,55-43,53,17,34,77-8,78,6,69,51-48,56-98S450.05,97.35,514.05,53.35Z"/><path class="cls-2" d="M604.89,127.7,281.63,322.92,229,186.72l60,107S473.46,249.07,395.16,81.17s66.39-21.6,66.39-21.6,44,34.1,5.62,84-34.2,70.56-18,66.89,64.34-27.67,86.14-72.94S529.7,147.16,604.89,127.7Z"/><path class="cls-3" d="M664.83,228.65,294.3,301.52l-2.84-146,19.82,121.06s188.53,21.13,172.38-163.43,69.78,2.41,69.78,2.41,29.67,47.09-23.45,80.84S473.72,251,490.23,253.15s69.92-4,105.89-39.08S587.52,221.21,664.83,228.65Z"/><path class="cls-4" d="M686.62,344,313.51,285.75l47.27-138.14L338,268.15s169.94,84.33,217.89-94.62,64.74,26.14,64.74,26.14,11.77,54.39-49.69,67.94-71.55,32.07-56.75,39.7,67.06,20.16,112.87-.51S616.52,310.57,686.62,344Z"/><path class="cls-5" d="M667.65,459.85,337,277.5l91.65-113.64L366,269.34S496.83,406.7,603.09,255,655,301.64,655,301.64s-7.54,55.15-69.93,46.86-78.2,5.66-66.91,17.89,56.13,41.89,106.24,38.13S613.21,404.46,667.65,459.85Z"/><path class="cls-6" d="M610.2,562.22,361.83,277.77l125-75.44L391.89,280s76,173.83,227.73,67.57,32.79,61.63,32.79,61.63-25.94,49.24-81.73,20.11-75.43-21.42-69-6.07,38.41,58.56,86.78,72.16S578,491.55,610.2,562.22Z"/><path class="cls-7" d="M521.21,638.78,385.09,286.53l143.27-28.14L412.57,298.93s11.94,189.33,190.89,141.38,9.74,69.13,9.74,69.13-41.23,37.4-83.69-9.05S466,454.46,466.76,471.08s16.07,68.17,56.87,97.5S515.1,561.35,521.21,638.78Z"/><path class="cls-8" d="M411.39,680.27,404,302.71l144.25,22.56-122.66-1.5s-53.55,182,131,198.14-14.49,68.29-14.49,68.29-51.53,21-75.54-37.13-44-64.89-48.95-49-8.22,69.55,20.09,111.07S432.14,605.43,411.39,680.27Z"/><path class="cls-9" d="M294,681.71,416.16,324.38,544,394.91,429.24,351.54s-112.56,152.71,55.34,231-37,59.22-37,59.22S392,643.91,389.32,581s-19.16-76-29.23-62.78S328.58,580.8,341,629.49,339.1,618.47,294,681.71Z"/><path class="cls-10" d="M183.21,642.91l237-294,96,110-93-80s-158,105-27,236-55,43-55,43-53-17-34-77,8-78-6-69-51,48-56,98S247.21,598.91,183.21,642.91Z"/><path class="cls-11" d="M92.37,568.55,415.63,373.34l52.59,136.2-60-107S223.8,447.19,302.1,615.09s-66.39,21.6-66.39,21.6-44-34.1-5.62-84,34.2-70.56,18-66.89-64.35,27.66-86.15,72.94S167.56,549.1,92.37,568.55Z"/><path class="cls-12" d="M32.43,467.61,403,394.74l2.84,146L386,419.65S197.45,398.52,213.6,583.08s-69.77-2.42-69.77-2.42-29.68-47.09,23.44-80.84,56.27-54.61,39.76-56.71-69.92,4-105.89,39.08S109.74,475,32.43,467.61Z"/><path class="cls-13" d="M10.64,352.26l373.11,58.25L336.48,548.65l22.79-120.54s-169.94-84.34-217.89,94.61-64.74-26.13-64.74-26.13-11.77-54.4,49.69-67.94,71.55-32.07,56.75-39.7-67.06-20.17-112.87.5S80.74,385.69,10.64,352.26Z"/><path class="cls-14" d="M29.61,236.41,360.29,418.76,268.64,532.4l62.63-105.48S200.43,289.55,94.17,441.31s-51.9-46.7-51.9-46.7,7.54-55.14,69.93-46.85,78.2-5.67,66.91-17.89S123,288,72.87,291.74,84.05,291.8,29.61,236.41Z"/><path class="cls-15" d="M87.06,134,335.43,418.49l-125,75.44,94.93-77.7s-76-173.83-227.73-67.57S44.85,287,44.85,287s25.94-49.24,81.73-20.11,75.43,21.42,69,6.07-38.41-58.56-86.78-72.17S119.27,204.7,87.06,134Z"/><path class="cls-16" d="M176.05,57.48,312.17,409.73,168.9,437.87l115.79-40.54S272.75,208,93.8,256s-9.74-69.14-9.74-69.14,41.23-37.39,83.69,9.06,63.55,45.93,62.75,29.3S214.43,157,173.63,127.68,182.16,134.91,176.05,57.48Z"/><path class="cls-17" d="M285.87,16l7.43,377.55L149.05,371l122.66,1.5s53.55-182-131-198.14,14.49-68.29,14.49-68.29,51.53-21,75.54,37.13,44,64.89,49,49,8.22-69.56-20.09-111.07S265.12,90.83,285.87,16Z"/><path class="cls-18" d="M403.25,14.55,281.1,371.88,153.27,301.35,268,344.72s112.56-152.71-55.34-231,37-59.21,37-59.21,55.62-2.16,58.29,60.72,19.16,76,29.23,62.79,31.51-62.55,19.11-111.24S358.16,77.79,403.25,14.55Z"/><path class="cls-1" d="M514.05,53.35l-237,294-96-110,93,80s158-105,27-236,55-43,55-43,53,17,34,77-8,78,6,69,51-48,56-98S450.05,97.35,514.05,53.35Z"/></g></g></svg>