<svg xmlns="http://www.w3.org/2000/svg" xmlns:xlink="http://www.w3.org/1999/xlink" viewBox="0 0 552.38 544.84"><defs><style>.cls-1,.cls-10,.cls-11,.cls-12,.cls-13,.cls-14,.cls-15,.cls-16,.cls-17,.cls-18,.cls-2,.cls-3,.cls-4,.cls-5,.cls-6,.cls-7,.cls-8,.cls-9{fill:none;stroke-miterlimit:10;}.cls-1{stroke:url(#radial-gradient);}.cls-2{stroke:url(#radial-gradient-2);}.cls-3{stroke:url(#radial-gradient-3);}.cls-4{stroke:url(#radial-gradient-4);}.cls-5{stroke:url(#radial-gradient-5);}.cls-6{stroke:url(#radial-gradient-6);}.cls-7{stroke:url(#radial-gradient-7);}.cls-8{stroke:url(#radial-gradient-8);}.cls-9{stroke:url(#radial-gradient-9);}.cls-10{stroke:url(#radial-gradient-10);}.cls-11{stroke:url(#radial-gradient-11);}.cls-12{stroke:url(#radial-gradient-12);}.cls-13{stroke:url(#radial-gradient-13);}.cls-14{stroke:url(#radial-gradient-14);}.cls-15{stroke:url(#radial-gradient-15);}.cls-16{stroke:url(#radial-gradient-16);}.cls-17{stroke:url(#radial-gradient-17);}.cls-18{stroke:url(#radial-gradient-18);}</style><radialGradient id="radial-gradient" cx="276.19" cy="272.42" r="195.66" gradientUnits="userSpaceOnUse"><stop offset="0" stop-color="#b0368e"/><stop offset="0.41" stop-color="#ec286e"/><stop offset="0.69" stop-color="#ff5b76"/><stop offset="1" stop-color="#fb7675"/></radialGradient><radialGradient id="radial-gradient-2" cx="276.19" cy="272.42" r="195.66" gradientTransform="matrix(0.94, 0.34, -0.34, 0.94, 109.83, -78.03)" xlink:href="#radial-gradient"/><radialGradient id="radial-gradient-3" cx="276.19" cy="272.42" r="195.66" gradientTransform="matrix(0.77, 0.64, -0.64, 0.77, 239.72, -113.8)" xlink:href="#radial-gradient"/><radialGradient id="radial-gradient-4" cx="276.19" cy="272.42" r="195.66" gradientTransform="matrix(0.5, 0.87, -0.87, 0.5, 374.02, -102.98)" xlink:href="#radial-gradient"/><radialGradient id="radial-gradient-5" cx="276.19" cy="272.42" r="195.66" gradientTransform="translate(496.51 -46.88) rotate(80)" xlink:href="#radial-gradient"/><radialGradient id="radial-gradient-6" cx="276.19" cy="272.42" r="195.66" gradientTransform="translate(592.43 47.73) rotate(100)" xlink:href="#radial-gradient"/><radialGradient id="radial-gradient-7" cx="276.19" cy="272.42" r="195.66" gradientTransform="translate(650.21 169.44) rotate(120)" xlink:href="#radial-gradient"/><radialGradient id="radial-gradient-8" cx="276.19" cy="272.42" r="195.66" gradientTransform="translate(662.87 303.57) rotate(140)" xlink:href="#radial-gradient"/><radialGradient id="radial-gradient-9" cx="276.19" cy="272.42" r="195.66" gradientTransform="translate(628.9 433.94) rotate(160)" xlink:href="#radial-gradient"/><radialGradient id="radial-gradient-10" cx="276.19" cy="272.42" r="195.66" gradientTransform="translate(552.38 544.84) rotate(180)" xlink:href="#radial-gradient"/><radialGradient id="radial-gradient-11" cx="276.19" cy="272.42" r="195.66" gradientTransform="matrix(-0.94, -0.34, 0.34, -0.94, 442.55, 622.87)" xlink:href="#radial-gradient"/><radialGradient id="radial-gradient-12" cx="276.19" cy="272.42" r="195.66" gradientTransform="matrix(-0.77, -0.64, 0.64, -0.77, 312.66, 658.63)" xlink:href="#radial-gradient"/><radialGradient id="radial-gradient-13" cx="276.19" cy="272.42" r="195.66" gradientTransform="matrix(-0.5, -0.87, 0.87, -0.5, 178.37, 647.81)" xlink:href="#radial-gradient"/><radialGradient id="radial-gradient-14" cx="276.19" cy="272.42" r="195.66" gradientTransform="translate(55.87 591.72) rotate(-100)" xlink:href="#radial-gradient"/><radialGradient id="radial-gradient-15" cx="276.19" cy="272.42" r="195.66" gradientTransform="translate(-40.05 497.11) rotate(-80)" xlink:href="#radial-gradient"/><radialGradient id="radial-gradient-16" cx="276.19" cy="272.42" r="195.66" gradientTransform="translate(-97.82 375.4) rotate(-60)" xlink:href="#radial-gradient"/><radialGradient id="radial-gradient-17" cx="276.19" cy="272.42" r="195.66" gradientTransform="translate(-110.49 241.27) rotate(-40)" xlink:href="#radial-gradient"/><radialGradient id="radial-gradient-18" cx="276.19" cy="272.42" r="195.66" gradientTransform="translate(-76.52 110.89) rotate(-20)" xlink:href="#radial-gradient"/></defs><title>Asset 1</title><g id="Layer_2" data-name="Layer 2"><g id="Layer_1-2" data-name="Layer 1"><path class="cls-1" d="M63.56,97c11.18,3.13,20.25,5.78,29.4,8.68q15.36,4.86,30.62,10,30.53,10.28,60.68,21.62c75.82,28.54,152.37,60.52,220.09,105.51,24.66,16.38,49.49,34.07,67.77,57.63,9.55,12.32,16.71,27.09,17.13,42.67.61,23-13.43,43.5-30.31,57.86-15.71,13.37-34.47,22.36-53.18,30.7s-36.6,15.68-57.55,16.19c-8.57.2-18.3-1.3-23.22-8.32-3.54-5.07-3.61-11.94-1.67-17.82,8.79-26.72,36.14-48.5,56-67,10-9.28,19.87-18.65,28.73-29,7.94-9.28,20.44-22.94,20.18-36-.21-10.42-9.79-18.51-19.76-21.57-22.58-6.93-49.55-4.73-72.71-2.86-50.56,4.07-100.6,13.31-149.88,25.3-17.8,4.33-36.6,9-54.12,3.67-13.36-4.08-24.51-13.72-32.67-25.06-23.44-32.57-30-75.91-33.64-114.84C65,149.78,62,96.55,63.56,97Z"/><path class="cls-2" d="M136.39,34.84c9.43,6.76,17.05,12.35,24.66,18.2q12.76,9.83,25.35,19.87Q211.57,93,236,114c61.48,52.75,122.49,109,170.73,174.42,17.57,23.83,34.85,48.94,44,77.34,4.77,14.83,6.45,31.16,1.51,45.94-7.29,21.8-27.5,36.29-48.27,44-19.34,7.19-40,9.23-60.48,10.66s-39.75,2.22-59.61-4.47c-8.13-2.74-16.75-7.48-19-15.76-1.6-6,.69-12.46,4.52-17.32,17.4-22.1,50.55-33.2,75.5-43.8,12.52-5.32,25.05-10.74,36.91-17.43,10.63-6,27.06-14.57,31.27-26.89,3.37-9.87-2.87-20.75-11.19-27-18.85-14.23-44.94-21.38-67.35-27.55-48.9-13.47-99.08-21.9-149.49-27.48-18.21-2-37.48-4.06-52.12-15.07-11.16-8.4-18.33-21.27-22.12-34.72-10.89-38.62-2.21-81.59,7.67-119.43C119.66,84.93,135.08,33.9,136.39,34.84Z"/><path class="cls-3" d="M226.08,1.35c6.55,9.59,11.79,17.44,16.94,25.54q8.64,13.61,17,27.35,16.79,27.48,32.58,55.56c39.73,70.6,77.83,144.31,100.78,222.3,8.36,28.4,16,57.91,14.87,87.71-.6,15.57-4.61,31.49-14.3,43.69-14.3,18-38.25,24.69-60.41,24.85-20.63.14-40.79-5-60.48-10.67S235,466.17,218.6,453.09c-6.69-5.35-13.18-12.76-12.43-21.3.54-6.16,4.91-11.47,10.16-14.73,23.92-14.81,58.87-13.91,85.93-15.34,13.59-.71,27.21-1.52,40.65-3.75,12-2,30.41-4.43,38.58-14.58,6.55-8.12,4.41-20.47-1.27-29.22-12.84-19.83-34.92-35.47-53.86-48.93-41.34-29.38-85.62-54.47-131.08-77-16.41-8.12-33.83-16.63-43.82-32-7.61-11.71-10-26.26-8.91-40.19,3-40,25.83-77.42,48-109.6C193.23,42.71,225.16,0,226.08,1.35Z"/><path class="cls-4" d="M321.81.56C324.69,11.81,326.93,21,329,30.35q3.45,15.74,6.64,31.52,6.38,31.58,11.62,63.36c13.19,79.93,23.77,162.22,18.67,243.36-1.86,29.55-4.76,59.89-16,87.51-5.89,14.43-15.1,28-28.38,36.16-19.59,12-44.39,10.12-65.26,2.69-19.44-6.92-36.61-18.67-53.19-30.71s-31.88-23.85-42.79-41.74c-4.46-7.32-8-16.5-4.4-24.27,2.62-5.61,8.54-9.1,14.59-10.36,27.54-5.74,60.07,7.06,86,15,13,4,26.09,7.88,39.48,10.38,12,2.24,30.09,6.23,41.24-.5,8.92-5.4,11.14-17.74,8.8-27.9-5.29-23-20.68-45.28-33.88-64.4-28.8-41.75-61.83-80.46-96.85-117.15-12.65-13.25-26.11-27.2-30.24-45-3.15-13.61-.37-28.08,5.37-40.81C206.87,80.83,241.14,53.49,273,30.86,276.8,28.18,321.41-1,321.81.56Z"/><path class="cls-5" d="M412,32.56C410.9,44.11,409.87,53.49,408.6,63q-2.12,16-4.53,31.89-4.81,31.86-10.76,63.52C378.37,238,360.17,319,327.63,393.48c-11.86,27.13-25,54.65-45,76.75-10.47,11.55-23.77,21.16-39,24.28-22.51,4.59-45.17-5.67-62.24-19.8-15.9-13.15-28-30.07-39.48-47s-21.79-33.31-25.93-53.86c-1.69-8.4-1.9-18.24,4.17-24.3,4.37-4.38,11.13-5.64,17.25-4.75,27.84,4,54,27.18,75.69,43.48,10.87,8.19,21.82,16.33,33.55,23.25,10.51,6.21,26.14,16.15,38.92,13.64,10.24-2,16.54-12.86,17.82-23.21,2.9-23.44-3.95-49.61-9.81-72.1C280.74,280.73,263,233.05,242.58,186.6c-7.35-16.78-15.23-34.49-13-52.67,1.69-13.86,9.25-26.51,19-36.51,28-28.74,69.55-42.71,107.26-53.08C360.29,43.12,412.2,31,412,32.56Z"/><path class="cls-6" d="M485.88,93.48c-5,10.47-9.2,18.94-13.64,27.45q-7.46,14.28-15.17,28.42-15.42,28.28-31.83,56C384,275.06,339.18,344.9,283.12,403.77,262.7,425.21,241,446.59,214.59,460.5c-13.79,7.27-29.57,11.76-45,9.46-22.73-3.38-40.51-20.77-51.72-39.89-10.44-17.79-16-37.83-21-57.71s-9.09-38.76-5.95-59.48c1.29-8.48,4.46-17.8,12.23-21.42,5.61-2.61,12.38-1.48,17.84,1.44,24.78,13.31,41.48,44,56.24,66.75,7.42,11.41,14.93,22.8,23.58,33.33,7.76,9.43,19,24.12,31.91,26.12,10.31,1.61,19.94-6.43,24.68-15.71,10.75-21,13.26-48,15.44-71.12,4.77-50.49,4.36-101.37,1.11-152-1.17-18.28-2.51-37.61,5.79-53.94,6.34-12.45,17.76-21.75,30.35-27.81,36.14-17.43,80-16.35,118.94-13.19C433.65,85.71,486.58,92,485.88,93.48Z"/><path class="cls-7" d="M534.43,176c-8.29,8.12-15.11,14.65-22.2,21.13q-11.89,10.86-24,21.51-24.17,21.3-49.07,41.74c-62.63,51.39-128.6,101.7-201.42,137.85C211.26,411.38,183.52,424,154,428.09c-15.44,2.12-31.81.94-45.51-6.5-20.19-10.95-31-33.38-35-55.17-3.72-20.29-2.12-41,0-61.41s4.71-39.54,14.76-57.93c4.1-7.53,10.27-15.2,18.81-16,6.16-.53,12.15,2.84,16.27,7.46,18.74,21,23.92,55.55,30,82,3.06,13.25,6.22,26.53,10.75,39.38,4.06,11.51,9.65,29.18,21.06,35.46,9.13,5,20.93.78,28.56-6.32,17.29-16.1,28.87-40.55,38.83-61.55,21.75-45.81,38.77-93.77,53-142.45,5.15-17.57,10.5-36.2,23.89-48.7,10.21-9.53,24.13-14.36,38-15.76,39.92-4,80.73,12,116.28,28.29C488,150.82,535.59,174.86,534.43,176Z"/><path class="cls-8" d="M551.84,270.13c-10.58,4.79-19.22,8.59-28.09,12.26q-14.89,6.14-29.89,12-30,11.74-60.38,22.44c-76.43,26.86-155.63,51.58-236.42,60.64-29.42,3.3-59.81,5.71-89-.59-15.23-3.29-30.21-10-40.54-21.67-15.24-17.2-17.68-42-14-63.8,3.44-20.35,12-39.29,21-57.71s18-35.54,33.69-49.39c6.43-5.66,14.85-10.77,23.13-8.55,6,1.61,10.44,6.83,12.74,12.57,10.43,26.13,3.48,60.39.18,87.29-1.65,13.51-3.22,27.06-3.36,40.68-.12,12.21-.91,30.72,7.65,40.53,6.87,7.85,19.41,7.89,29,3.82,21.75-9.2,41-28.23,57.54-44.54,36.11-35.62,68.5-74.86,98.55-115.73,10.85-14.75,22.25-30.43,39.1-37.6,12.86-5.46,27.59-5.24,41.13-1.8,38.89,9.89,71.76,38.88,99.59,66.36C516.82,230.6,553.31,269.47,551.84,270.13Z"/><path class="cls-9" d="M536,364.55c-11.58.88-21,1.5-30.59,1.9q-16.1.69-32.2,1.08-32.19.78-64.41.43c-81-.89-163.89-4.75-242.9-23.87-28.78-7-58.16-15.09-83.4-31-13.19-8.3-25-19.73-30.68-34.23-8.43-21.38-2.26-45.47,8.68-64.74,10.19-17.94,24.75-32.8,39.48-47s29-27.25,48.54-34.89c8-3.12,17.64-5,24.66-.12,5.07,3.55,7.48,10,7.67,16.17.87,28.11-17.38,57.93-29.68,82.08-6.17,12.13-12.28,24.33-17.07,37.08-4.29,11.44-11.37,28.56-6.67,40.7,3.76,9.73,15.53,14.05,25.95,13.52,23.59-1.21,48.18-12.51,69.3-22.18,46.12-21.12,90-46.92,132.19-75,15.24-10.16,31.32-21,49.61-22,13.95-.74,27.71,4.51,39.26,12.37,33.16,22.59,54.14,61.08,70.89,96.42C516.61,315.42,537.61,364.43,536,364.55Z"/><path class="cls-10" d="M488.82,447.85c-11.18-3.13-20.24-5.77-29.4-8.67q-15.35-4.86-30.62-10-30.53-10.28-60.68-21.63C292.31,379,215.75,347,148,302.05,123.38,285.67,98.55,268,80.27,244.41c-9.56-12.31-16.72-27.08-17.13-42.66-.61-23,13.43-43.5,30.3-57.86,15.71-13.38,34.48-22.37,53.19-30.71S183.22,97.5,204.17,97c8.57-.21,18.3,1.29,23.22,8.32,3.55,5.07,3.61,11.94,1.68,17.82-8.8,26.72-36.15,48.49-56,67-9.95,9.28-19.86,18.66-28.72,29-7.94,9.27-20.45,22.94-20.19,36,.21,10.43,9.79,18.52,19.76,21.58,22.58,6.93,49.55,4.72,72.71,2.85,50.56-4.07,100.6-13.31,149.88-25.3,17.8-4.33,36.61-9,54.13-3.66,13.36,4.07,24.5,13.71,32.66,25.05,23.44,32.57,30,75.91,33.64,114.85C487.4,395.06,490.37,448.29,488.82,447.85Z"/><path class="cls-11" d="M416,510c-9.43-6.76-17-12.34-24.65-18.2Q378.58,482,366,471.92q-25.17-20.1-49.62-41.07c-61.48-52.76-122.49-109-170.73-174.42-17.57-23.83-34.85-48.94-44-77.34-4.76-14.84-6.44-31.17-1.5-46,7.28-21.79,27.49-36.28,48.26-44,19.34-7.19,40.05-9.22,60.48-10.66s39.75-2.22,59.61,4.48c8.13,2.74,16.76,7.47,19,15.76,1.6,6-.69,12.45-4.51,17.31-17.41,22.1-50.56,33.21-75.5,43.81-12.53,5.32-25.05,10.73-36.92,17.43-10.63,6-27.06,14.56-31.27,26.89-3.37,9.87,2.87,20.75,11.19,27,18.85,14.24,44.95,21.39,67.35,27.56,48.9,13.46,99.08,21.89,149.5,27.48,18.2,2,37.48,4,52.11,15.07,11.16,8.4,18.33,21.27,22.12,34.71,10.89,38.63,2.21,81.59-7.66,119.43C432.72,459.9,417.31,510.93,416,510Z"/><path class="cls-12" d="M326.31,543.48c-6.56-9.58-11.8-17.43-16.95-25.54q-8.62-13.59-17-27.34Q275.56,463.1,259.75,435C220,364.43,181.93,290.73,159,212.74c-8.36-28.4-16-57.91-14.86-87.72.59-15.57,4.6-31.48,14.3-43.69,14.29-18,38.25-24.69,60.4-24.84,20.64-.15,40.79,5,60.48,10.66s38.12,11.51,54.49,24.6C340.48,97.1,347,104.5,346.21,113c-.54,6.17-4.9,11.47-10.16,14.73-23.92,14.82-58.87,13.91-85.93,15.34-13.59.72-27.21,1.52-40.65,3.76-12,2-30.41,4.43-38.58,14.57-6.54,8.12-4.4,20.48,1.27,29.23C185,210.49,207.08,226.14,226,239.6c41.35,29.38,85.62,54.46,131.08,77,16.42,8.13,33.83,16.63,43.82,32,7.61,11.71,9.95,26.26,8.91,40.19-3,40-25.82,77.42-48.05,109.6C359.16,502.13,327.22,544.81,326.31,543.48Z"/><path class="cls-13" d="M230.58,544.27c-2.89-11.24-5.13-20.41-7.19-29.79q-3.46-15.74-6.65-31.52-6.37-31.57-11.62-63.36c-13.18-79.93-23.77-162.22-18.67-243.35,1.86-29.55,4.76-59.9,16-87.51,5.89-14.43,15.1-28,28.38-36.17,19.59-12,44.39-10.12,65.27-2.69,19.43,6.93,36.6,18.68,53.18,30.71s31.88,23.86,42.79,41.75c4.46,7.32,8,16.49,4.4,24.26-2.62,5.61-8.53,9.1-14.59,10.37-27.54,5.74-60.07-7.06-86-15-13-4-26.09-7.87-39.49-10.37-12-2.24-30.09-6.24-41.23.5-8.93,5.39-11.14,17.73-8.81,27.9,5.29,23,20.68,45.27,33.88,64.4,28.81,41.74,61.83,80.46,96.85,117.14,12.65,13.25,26.11,27.2,30.24,45.05,3.15,13.61.37,28.07-5.37,40.81C345.51,464,311.24,491.34,279.35,514,275.59,516.65,231,545.84,230.58,544.27Z"/><path class="cls-14" d="M140.35,512.28c1.13-11.55,2.16-20.94,3.43-30.46q2.13-16,4.53-31.89,4.81-31.85,10.76-63.51c15-79.62,33.14-160.57,65.69-235.07,11.85-27.13,25-54.65,45-76.74,10.47-11.55,23.77-21.17,39-24.28C331.3,45.74,354,56,371,70.12c15.89,13.15,28,30.07,39.47,47.05s21.8,33.32,25.93,53.86c1.69,8.41,1.9,18.25-4.16,24.31-4.38,4.37-11.14,5.63-17.26,4.75-27.84-4-54-27.18-75.68-43.49-10.87-8.18-21.83-16.32-33.56-23.25-10.51-6.21-26.14-16.15-38.92-13.63-10.23,2-16.53,12.85-17.82,23.2-2.9,23.45,4,49.62,9.82,72.11,12.78,49.08,30.58,96.75,50.94,143.2,7.35,16.78,15.23,34.49,13,52.67-1.7,13.87-9.26,26.51-19,36.52-28,28.74-69.56,42.71-107.27,53.07C192.09,501.72,140.19,513.89,140.35,512.28Z"/><path class="cls-15" d="M66.5,451.35c5-10.47,9.2-18.93,13.65-27.44q7.45-14.28,15.16-28.42,15.42-28.28,31.83-56c41.28-69.71,86.06-139.55,142.13-198.43,20.41-21.44,42.14-42.82,68.52-56.73,13.79-7.27,29.58-11.76,45-9.46,22.73,3.39,40.51,20.78,51.72,39.89,10.45,17.8,16,37.84,21,57.71s9.08,38.76,5.94,59.48c-1.29,8.48-4.45,17.8-12.22,21.42-5.61,2.62-12.39,1.49-17.84-1.44-24.79-13.3-41.48-44-56.25-66.75-7.42-11.4-14.93-22.8-23.58-33.32-7.75-9.43-19-24.12-31.91-26.13-10.31-1.6-19.94,6.43-24.68,15.72-10.75,21-13.26,48-15.44,71.11-4.77,50.49-4.36,101.38-1.11,152,1.18,18.28,2.52,37.62-5.79,53.94-6.33,12.45-17.76,21.75-30.34,27.82-36.15,17.43-80,16.34-118.95,13.19C118.74,459.12,65.8,452.81,66.5,451.35Z"/><path class="cls-16" d="M18,368.84c8.3-8.12,15.12-14.64,22.21-21.12q11.88-10.86,24-21.52,24.15-21.3,49.06-41.74c62.63-51.38,128.6-101.69,201.42-137.84,26.52-13.17,54.25-25.83,83.8-29.88,15.44-2.11,31.81-.93,45.51,6.5,20.2,11,31,33.38,35,55.18,3.72,20.29,2.13,41,0,61.41s-4.71,39.53-14.75,57.93C460,305.28,453.85,313,445.3,313.7c-6.16.54-12.14-2.84-16.27-7.45-18.74-21-23.92-55.56-30-82-3.07-13.26-6.23-26.54-10.76-39.38-4.06-11.52-9.65-29.18-21.05-35.47-9.14-5-20.93-.77-28.57,6.33-17.29,16.09-28.86,40.55-38.83,61.54-21.75,45.82-38.77,93.78-53,142.45-5.14,17.58-10.5,36.21-23.89,48.71-10.21,9.53-24.13,14.36-38,15.76-39.93,4-80.74-12-116.29-28.29C64.38,394,16.79,370,18,368.84Z"/><path class="cls-17" d="M.54,274.7c10.58-4.79,19.22-8.59,28.1-12.25q14.88-6.15,29.88-12,30-11.76,60.38-22.44c76.43-26.87,155.63-51.58,236.42-60.65,29.42-3.3,59.81-5.71,89,.59,15.23,3.3,30.21,10,40.54,21.67,15.24,17.21,17.68,42,14,63.81-3.44,20.34-12,39.29-21,57.71s-18,35.53-33.68,49.38c-6.44,5.67-14.85,10.77-23.13,8.55-6-1.6-10.45-6.82-12.74-12.57-10.44-26.12-3.48-60.38-.19-87.28,1.65-13.51,3.23-27.07,3.36-40.69.12-12.21.92-30.72-7.65-40.52-6.86-7.86-19.4-7.89-29-3.83-21.75,9.21-41,28.23-57.54,44.55-36.11,35.62-68.5,74.86-98.54,115.72-10.86,14.76-22.26,30.43-39.11,37.6-12.86,5.47-27.59,5.24-41.13,1.8C99.55,374,66.68,345,38.85,317.48,35.56,314.23-.93,275.37.54,274.7Z"/><path class="cls-18" d="M16.39,180.29c11.57-.89,21-1.5,30.59-1.91q16.08-.67,32.19-1.07,32.21-.8,64.42-.44c81,.89,163.88,4.76,242.9,23.87,28.77,7,58.15,15.09,83.39,31,13.19,8.3,25,19.73,30.69,34.22,8.43,21.38,2.26,45.48-8.69,64.74-10.19,17.94-24.75,32.81-39.48,47.05s-29,27.25-48.54,34.88c-8,3.13-17.64,5.05-24.66.13-5.06-3.55-7.48-10-7.67-16.17-.87-28.12,17.38-57.93,29.68-82.09,6.17-12.12,12.29-24.32,17.07-37.08,4.29-11.43,11.37-28.55,6.67-40.7C421.19,227,409.42,222.66,399,223.2c-23.59,1.21-48.17,12.5-69.3,22.18-46.12,21.12-90,46.92-132.19,75-15.24,10.15-31.31,21-49.61,21.95-13.94.74-27.71-4.51-39.26-12.37-33.16-22.59-54.13-61.08-70.89-96.41C35.77,229.41,14.78,180.41,16.39,180.29Z"/><path class="cls-1" d="M63.56,97c11.18,3.13,20.25,5.78,29.4,8.68q15.36,4.86,30.62,10,30.53,10.28,60.68,21.62c75.82,28.54,152.37,60.52,220.09,105.51,24.66,16.38,49.49,34.07,67.77,57.63,9.55,12.32,16.71,27.09,17.13,42.67.61,23-13.43,43.5-30.31,57.86-15.71,13.37-34.47,22.36-53.18,30.7s-36.6,15.68-57.55,16.19c-8.57.2-18.3-1.3-23.22-8.32-3.54-5.07-3.61-11.94-1.67-17.82,8.79-26.72,36.14-48.5,56-67,10-9.28,19.87-18.65,28.73-29,7.94-9.28,20.44-22.94,20.18-36-.21-10.42-9.79-18.51-19.76-21.57-22.58-6.93-49.55-4.73-72.71-2.86-50.56,4.07-100.6,13.31-149.88,25.3-17.8,4.33-36.6,9-54.12,3.67-13.36-4.08-24.51-13.72-32.67-25.06-23.44-32.57-30-75.91-33.64-114.84C65,149.78,62,96.55,63.56,97Z"/></g></g></svg>